:SAMPLES-PER-SECOND 30
:FULLY-SPECIFIED
:DEGREES
326
root  41.1814 33.0569 -38.2918 -174.598 18.3842 179.654
RightUpLeg  -12.3393 -22.8613 -13.1592
RightLeg  32.6052 -3.97845 -2.20761
RightFoot  -0.848123 -0.000708064 0.314795
RightToes  -42.3245 -0.237313 -0.327873
Spine  2.17848 2.93856 -0.477218
Spine1  4.32409 6.03383 -0.196864
HEad  -33.8626 1.01905 -8.25498
LeftShoulder1  -1.94126e-019 -3.10601e-018 -2.51263e-017
LeftArm  -8.53836 52.8982 -62.982
LeftForeArm  51.0229 -74.7451 -37.9592
LeftHand  -0.534986 -1.98139 8.61629
RightShoulder  -4.96962e-017 0 -2.36833e-017
RightArm  2.46755 -21.262 73.8029
RightForeArm  65.7823 39.3467 5.32318
RightHand  -1.6561 6.1376 -16.8732
LeftUpLeg  -33.7885 12.9193 6.05904
LeftLeg  26.2999 12.8609 5.29442
LeftFoot  15.0688 -0.489629 3.86223
LeftToes  -36.5488 1.9075e-006 4.29692e-008
327
root  40.5707 33.2515 -38.057 -174.521 17.986 179.522
RightUpLeg  -12.7537 -22.8959 -13.7672
RightLeg  31.6809 -4.03154 -2.15176
RightFoot  2.08637 0.00862521 0.0561897
RightToes  -43.6623 -0.24838 -0.334862
Spine  2.22472 2.58766 -0.487699
Spine1  4.41412 5.28917 -0.230391
HEad  -35.4307 0.450454 -7.20336
LeftShoulder1  -1.94126e-019 -3.10601e-018 -2.51263e-017
LeftArm  -5.63707 54.3879 -61.313
LeftForeArm  51.9055 -74.8425 -38.1004
LeftHand  -0.544678 -2.2443 8.48554
RightShoulder  -4.96962e-017 0 -2.36833e-017
RightArm  -4.01319 -23.2324 70.4949
RightForeArm  58.914 36.0037 4.77883
RightHand  -1.23547 3.73666 -15.8822
LeftUpLeg  -32.9749 9.64437 8.47715
LeftLeg  32.2146 10.8643 5.84626
LeftFoot  16.2916 -0.502475 3.67092
LeftToes  -38.2505 1.9075e-006 4.29692e-008
328
root  39.9037 33.2631 -37.849 -174.612 18.5346 179.727
RightUpLeg  -14.061 -22.8546 -14.3401
RightLeg  32.4635 -3.21358 -1.77606
RightFoot  4.3904 0.0234401 -0.0858613
RightToes  -45.4569 -0.263476 -0.343827
Spine  2.34632 2.51012 -0.426456
Spine1  4.65505 5.09234 -0.114049
HEad  -36.967 -0.167419 -6.32396
LeftShoulder1  -1.94126e-019 -3.10601e-018 -2.51263e-017
LeftArm  -2.85248 53.7484 -60.5235
LeftForeArm  57.0123 -75.6589 -40.0752
LeftHand  -0.561674 -2.48202 8.49613
RightShoulder  -4.96962e-017 0 -2.36833e-017
RightArm  -10.0214 -23.7979 66.8477
RightForeArm  50.878 31.9185 4.18782
RightHand  -0.774007 0.297826 -15.832
LeftUpLeg  -31.6759 7.85872 10.7757
LeftLeg  38.7482 10.4861 7.27398
LeftFoot  13.1995 -0.339575 3.09588
LeftToes  -36.7578 1.9075e-006 4.29692e-008
329
root  39.2301 33.0523 -37.5911 -174.511 19.5093 -179.714
RightUpLeg  -16.0015 -23.0463 -14.5681
RightLeg  34.0675 -1.84848 -1.09817
RightFoot  5.2482 0.0257987 -0.0230016
RightToes  -46.4822 -0.272225 -0.348736
Spine  2.44096 2.49781 -0.262686
Spine1  4.84743 5.04002 0.19422
HEad  -38.6842 -0.905482 -5.34334
LeftShoulder1  -1.94126e-019 -3.10601e-018 -2.51263e-017
LeftArm  -1.08979 51.3642 -60.7175
LeftForeArm  60.8245 -76.2619 -41.7778
LeftHand  -0.598208 -3.17659 8.34642
RightShoulder  -4.96962e-017 0 -2.36833e-017
RightArm  -15.5343 -22.861 62.9336
RightForeArm  44.8086 26.9992 3.40358
RightHand  -0.468464 -1.49738 -13.8581
LeftUpLeg  -29.9985 7.88586 13.0506
LeftLeg  44.3826 9.43808 8.02123
LeftFoot  9.24606 -0.159918 2.139
LeftToes  -35.5449 1.9075e-006 4.29692e-008
330
root  38.5016 32.584 -37.2862 -173.978 19.9332 -178.812
RightUpLeg  -18.4569 -24.8373 -14.4464
RightLeg  36.3442 -0.0685076 -0.0620685
RightFoot  4.69174 0.0137405 0.152497
RightToes  -46.7029 -0.274119 -0.348659
Spine  2.45381 2.14998 -0.0134381
Spine1  4.8623 4.3509 0.584955
HEad  -40.7413 -1.38506 -4.03051
LeftShoulder1  -1.94126e-019 -3.10601e-018 -2.51263e-017
LeftArm  -0.523829 47.9516 -61.6393
LeftForeArm  62.6018 -76.6021 -42.9943
LeftHand  -0.578885 -3.46585 7.83946
RightShoulder  -4.96962e-017 0 -2.36833e-017
RightArm  -22.0281 -19.9979 59.3793
RightForeArm  43.126 20.1337 2.11441
RightHand  -0.337224 -2.56411 -13.5452
LeftUpLeg  -28.6523 7.81841 15.348
LeftLeg  49.1505 8.44219 8.47911
LeftFoot  7.30433 -0.0943213 1.63919
LeftToes  -34.9944 1.9075e-006 4.29692e-008
331
root  37.6712 31.8959 -37.0324 -173.464 19.77 -177.848
RightUpLeg  -20.8375 -27.2713 -14.4883
RightLeg  39.1003 1.44995 1.00819
RightFoot  3.15649 0.00512715 0.249578
RightToes  -46.3965 -0.27149 -0.348331
Spine  2.50841 1.57615 0.306821
Spine1  4.93704 3.23997 0.977045
HEad  -43.0697 -1.55709 -2.6114
LeftShoulder1  -1.94126e-019 -3.10601e-018 -2.51263e-017
LeftArm  -0.0892765 43.3998 -63.0231
LeftForeArm  61.1935 -76.2615 -41.6423
LeftHand  -0.626169 -3.23665 8.66751
RightShoulder  -4.96962e-017 0 -2.36833e-017
RightArm  -31.1766 -17.0543 56.4543
RightForeArm  45.983 16.4226 1.35679
RightHand  -0.270368 -3.3502 -14.8422
LeftUpLeg  -26.7142 6.66741 17.3825
LeftLeg  51.6665 7.64656 8.39241
LeftFoot  7.37603 -0.0881302 1.52875
LeftToes  -51.099 1.9075e-006 4.29692e-008
332
root  36.7212 31.1861 -36.8553 -173.153 19.2346 -176.822
RightUpLeg  -22.415 -29.5123 -14.8535
RightLeg  41.0881 2.53681 1.91231
RightFoot  2.20886 0.00445266 0.268677
RightToes  -47.2344 -0.278698 -0.352237
Spine  2.53173 0.955183 0.638926
Spine1  4.97473 2.01792 1.46465
HEad  -44.9074 -2.46404 -1.18447
LeftShoulder1  -1.94126e-019 -3.10601e-018 -2.51263e-017
LeftArm  0.718628 36.972 -65.099
LeftForeArm  53.6964 -73.5308 -33.1064
LeftHand  -0.696838 -3.04948 9.81606
RightShoulder  -4.96962e-017 0 -2.36833e-017
RightArm  -40.6954 -15.3404 54.2825
RightForeArm  47.2764 14.9537 1.33275
RightHand  0.144124 -6.37539 -18.5066
LeftUpLeg  -24.4093 6.50175 18.3825
LeftLeg  49.1562 5.12078 5.17634
LeftFoot  -3.4643 -0.0179805 -0.433038
LeftToes  -57.5113 1.9075e-006 4.29692e-008
333
root  35.618 30.7229 -36.6457 -172.825 18.5175 -176.192
RightUpLeg  -23.8718 -30.171 -15.6399
RightLeg  42.0944 2.79197 2.18365
RightFoot  3.71692 0.00437749 0.371647
RightToes  -48.672 -0.291195 -0.35869
Spine  2.62907 0.325974 0.807263
Spine1  5.1726 0.739806 1.80993
HEad  -46.3836 -4.21958 -0.443345
LeftShoulder1  -1.94126e-019 -3.10601e-018 -2.51263e-017
LeftArm  1.14297 27.4914 -68.6533
LeftForeArm  43.631 -65.723 -20.6211
LeftHand  -0.823264 -3.69096 10.7703
RightShoulder  -4.96962e-017 0 -2.36833e-017
RightArm  -45.9771 -14.7207 53.7924
RightForeArm  41.5935 15.5539 1.49246
RightHand  0.776824 -9.28328 -23.2181
LeftUpLeg  -26.4942 7.63258 17.0855
LeftLeg  51.1026 5.16763 5.58895
LeftFoot  -8.89374 -0.104198 -1.17826
LeftToes  -54.3798 1.9075e-006 4.29692e-008
334
root  34.3909 30.7704 -36.4047 -173.08 16.6652 -176.699
RightUpLeg  -22.8936 -29.8917 -17.7851
RightLeg  39.5389 2.01728 1.4339
RightFoot  7.79226 0.00338191 0.469588
RightToes  -49.726 -0.300458 -0.363222
Spine  2.72798 -0.374846 0.465963
Spine1  5.35489 -0.729532 1.30583
HEad  -47.4547 -7.08397 0.179896
LeftShoulder1  -1.94126e-019 -3.10601e-018 -2.51263e-017
LeftArm  2.40661 16.9666 -72.4485
LeftForeArm  43.1759 -55.8192 -12.8166
LeftHand  -0.751113 -4.09742 9.45539
RightShoulder  -4.96962e-017 0 -2.36833e-017
RightArm  -49.762 -16.3228 55.7359
RightForeArm  35.9613 18.038 2.05593
RightHand  0.95647 -9.98007 -24.1162
LeftUpLeg  -31.0812 5.29019 13.9503
LeftLeg  55.8658 6.81956 8.68753
LeftFoot  -7.0699 -0.0935225 -1.35229
LeftToes  -50.3168 1.9075e-006 4.29692e-008
335
root  33.185 31.0823 -36.24 -172.981 16.5652 -176.901
RightUpLeg  -21.2083 -28.3691 -18.8412
RightLeg  33.5401 0.670187 0.370486
RightFoot  13.0327 0.0272759 0.292585
RightToes  -49.3908 -0.297503 -0.361799
Spine  2.66212 -0.328141 0.145245
Spine1  5.22752 -0.701552 0.864515
HEad  -47.6063 -9.91212 0.246995
LeftShoulder1  -1.94126e-019 -3.10601e-018 -2.51263e-017
LeftArm  5.25349 9.73981 -75.3849
LeftForeArm  45.7263 -51.5842 -10.5304
LeftHand  -0.819754 -5.74661 8.85257
RightShoulder  -4.96962e-017 0 -2.36833e-017
RightArm  -48.8705 -19.0841 58.3051
RightForeArm  32.2557 21.0675 2.80688
RightHand  0.764146 -9.61153 -21.2159
LeftUpLeg  -31.9695 5.39794 11.1774
LeftLeg  55.1498 7.95817 9.85205
LeftFoot  -6.83788 -0.0980605 -1.47972
LeftToes  -46.1525 1.9075e-006 4.29692e-008
336
root  32.1952 31.6033 -36.1462 -172.227 19.4382 -176.35
RightUpLeg  -19.9234 -25.8447 -17.812
RightLeg  24.8877 -0.863211 -0.340104
RightFoot  18.3636 0.114774 -0.168407
RightToes  -44.5326 -0.255666 -0.339269
Spine  2.21971 0.161595 -0.0412575
Spine1  4.39068 0.322722 0.511123
HEad  -46.4832 -9.7578 -0.613178
LeftShoulder1  -1.94126e-019 -3.10601e-018 -2.51263e-017
LeftArm  5.65863 7.84993 -76.9539
LeftForeArm  43.9617 -55.4545 -12.5689
LeftHand  -0.864219 -5.24243 9.72736
RightShoulder  -4.96962e-017 0 -2.36833e-017
RightArm  -41.5436 -21.1684 61.0717
RightForeArm  29.3514 24.2207 3.58865
RightHand  0.417964 -8.51086 -16.2704
LeftUpLeg  -29.6777 7.6407 9.99599
LeftLeg  50.5489 8.57263 9.0314
LeftFoot  -7.48211 -0.112375 -1.55696
LeftToes  -45.1811 1.9075e-006 4.29692e-008
337
root  31.5571 32.3305 -35.974 -171.14 23.4513 -175.769
RightUpLeg  -19.0866 -24.7694 -14.9809
RightLeg  16.4469 2.66573 0.603183
RightFoot  19.0181 -0.0813816 1.00731
RightToes  -42.1173 -0.235615 -0.326768
Spine  1.55979 0.460373 -0.271235
Spine1  3.10192 0.982499 0.0430472
HEad  -45.9128 -7.48836 -1.04142
LeftShoulder1  -1.94126e-019 -3.10601e-018 -2.51263e-017
LeftArm  4.81429 9.58501 -76.4063
LeftForeArm  42.5261 -63.3103 -18.291
LeftHand  -0.862793 -3.77092 11.1789
RightShoulder  -4.96962e-017 0 -2.36833e-017
RightArm  -32.7065 -22.5389 64.3659
RightForeArm  35.2602 28.0477 4.10253
RightHand  -0.130844 -4.00471 -9.7299
LeftUpLeg  -28.1448 11.6925 9.04382
LeftLeg  46.3881 9.46684 8.62417
LeftFoot  -4.99462 -0.0512287 -1.01301
LeftToes  -44.0167 1.9075e-006 4.29692e-008
338
root  31.0136 33.0709 -35.6824 -169.817 26.5479 -174.98
RightUpLeg  -19.9068 -27.2437 -10.4271
RightLeg  14.4858 7.35994 1.40123
RightFoot  18.2287 -0.314391 2.45446
RightToes  -47.3668 -0.279842 -0.352844
Spine  0.917247 0.619048 -0.494081
Spine1  1.83157 1.34314 -0.402789
HEad  -46.4253 -5.69489 -0.579303
LeftShoulder1  -1.94126e-019 -3.10601e-018 -2.51263e-017
LeftArm  4.45946 11.6045 -74.9616
LeftForeArm  45.6793 -70.8522 -28.2382
LeftHand  -0.751747 -2.78774 10.8882
RightShoulder  -4.96962e-017 0 -2.36833e-017
RightArm  -24.8473 -24.38 67.8511
RightForeArm  46.5946 32.7076 4.5798
RightHand  -0.511876 2.94846 -7.34784
LeftUpLeg  -26.6264 15.4347 8.4907
LeftLeg  41.2032 9.63214 7.31514
LeftFoot  -2.28856 -0.0101944 -0.348839
LeftToes  -42.5309 1.9075e-006 4.29692e-008
339
root  30.4927 33.7446 -35.368 -169.014 29.3551 -174.338
RightUpLeg  -20.8076 -28.5057 -6.44598
RightLeg  17.9886 2.90341 0.738965
RightFoot  16.8922 -0.0714445 1.00061
RightToes  -45.2457 -0.261686 -0.342797
Spine  0.540754 0.73303 -0.810152
Spine1  1.08152 1.59909 -1.01938
HEad  -47.6653 -4.47758 0.429322
LeftShoulder1  -1.94126e-019 -3.10601e-018 -2.51263e-017
LeftArm  4.7055 13.0057 -72.9915
LeftForeArm  57.1157 -76.0979 -42.3311
LeftHand  -0.745138 -2.56073 11.0873
RightShoulder  -4.96962e-017 0 -2.36833e-017
RightArm  -18.423 -25.6932 71.56
RightForeArm  53.5714 37.174 5.32614
RightHand  -0.711841 5.57444 -7.8364
LeftUpLeg  -24.1975 17.7576 7.95415
LeftLeg  35.102 10.7228 6.47902
LeftFoot  0.432026 -0.000348719 0.254112
LeftToes  -40.4244 1.9075e-006 4.29692e-008
340
root  29.9004 34.2564 -35.016 -168.498 31.3004 -174.245
RightUpLeg  -21.2261 -29.5982 -3.59307
RightLeg  23.5769 -4.3793 -1.58643
RightFoot  13.9869 0.184971 -0.94736
RightToes  -41.5357 -0.230866 -0.323632
Spine  0.213009 0.513752 -1.11202
Spine1  0.421127 1.18051 -1.61368
HEad  -48.9731 -3.49398 1.05764
LeftShoulder1  -1.94126e-019 -3.10601e-018 -2.51263e-017
LeftArm  5.32015 14.107 -70.8194
LeftForeArm  73.7354 -78.9863 -58.9071
LeftHand  -0.800997 -2.71394 11.6837
RightShoulder  -4.96962e-017 0 -2.36833e-017
RightArm  -12.2507 -26.5887 74.3043
RightForeArm  55.2975 41.9576 6.53512
RightHand  -0.685628 5.66055 -7.50604
LeftUpLeg  -22.4129 16.7139 7.03558
LeftLeg  29.8337 13.943 6.74316
LeftFoot  3.44814 -0.0289516 1.1234
LeftToes  -38.5143 1.9075e-006 4.29692e-008
